<?xml version="1.0" encoding="utf-8"?>
<!-- Generator: Adobe Illustrator 19.0.0, SVG Export Plug-In . SVG Version: 6.00 Build 0)  -->
<svg version="1.1" id="Layer_1" xmlns="http://www.w3.org/2000/svg" xmlns:xlink="http://www.w3.org/1999/xlink" x="0px" y="0px"
	 viewBox="0 0 500 183" style="enable-background:new 0 0 500 183;" xml:space="preserve">
<style type="text/css">
	.st0{fill:#777777;}
</style>
<path class="st0" d="M348.8,35.61l-0.51-1.05V0c8.22,0,17.25,0,24.66,0L348.8,35.61z M472.96,0h-47.22v129.47h47.22V0z M292.37,0
	h-28.72v44.65L292.37,0z M343.42,129.47h33.59V75.74L343.42,129.47z M203.33,58.49c6.07,0,10.98-5.08,10.98-11.35
	c0-6.28-4.92-11.37-10.98-11.37l-10.22,0.03v93.67H148.9V0h58.06c29.47,0,51.24,15.69,51.24,48.1c0,26.69-16.07,43.24-41.69,43.24
	h-17.2V58.49H203.33z M268.39,129.47h33.59V75.6L268.39,129.47z M0,22.02c0,0,7.87-5.41,14.62-6.37C10.3,15.8,3.82,16.46,0,17.29
	V22.02z M0,34.62c3.89-0.03,8.2,0.21,12.38,0.88c4.22-6.6,9.09-14.16,16.07-18.89C17.61,15.92,8.19,20.79,0,26.69V34.62z
	 M16.37,35.89c8.75,1.24,17.36,3.26,26.37,6.24c-0.31-6.27-2.09-22.78-7-24.26C29.95,16.62,20.43,29.8,16.37,35.89z M65.34,52.98
	l1.18,0.71c-4.27-12.52-12.71-30.27-24.57-34.12c2.92,4.85,4.58,18.29,4.75,24.55C53.05,46.56,59.28,49.51,65.34,52.98z
	 M71.07,56.23c6.81,4.34,15.95,11.53,21.27,16.66c-6.74-18.56-24.99-41.09-36.7-47.65C64.31,35.48,68.55,45.84,71.07,56.23
	 M119.9,116.07c-4.98-33.36-21.48-63.06-46.73-81.04c11.76,12.39,20.16,27.45,25,43.67C108.8,90.71,115.11,101.79,119.9,116.07
	 M0,38.3v22.51c3.85-8.78,5.65-13.36,10.61-21.68C6.24,38.54,2.36,38.36,0,38.3z M40.03,75.98c1.53-9.22,2.79-20.29,2.95-28.74
	c-8.85-3.22-18.69-5.85-28.18-7.64C9.91,47.92,5.76,56.54,1.87,65.29C14.18,67.66,28.16,71.51,40.03,75.98z M46.53,47.67
	c-0.32,9.53-0.87,18.96-2.25,28.13c9.49,3.21,18.19,7.09,27.09,11.63c0.16-10.6-1.19-19.73-3.46-29.36
	C61.02,54.1,53.85,50.58,46.53,47.67z M72.56,61.86c1.74,9.35,2.9,19.22,2.95,29.46c8.45,4.89,16.8,11.21,23.77,17.46
	c-0.42-9.77-1.79-19.43-4.69-28.32C88.06,73.6,80.49,67.24,72.56,61.86z M0,71.15v33.12c11.46,2.37,24.37,5.71,33.88,8.6l1.79-8.47
	c1.69-8.26,3.16-16.84,4.16-25.09c-12.29-4.38-27.31-8.14-39.15-10.05L0,71.15z M43.51,80.61c-1.53,10.86-3.53,22.93-6.01,33.38
	c10.49,3.01,20.96,6.44,31.02,10.39c1.45-9.67,2.84-20.97,3.06-30.96C64.04,88.65,51.9,83.76,43.51,80.61 M103.18,112.36
	c4.9,5.61,9.76,11.45,12.82,17.11h2.37c-1.69-15.16-8.5-29.44-18.04-42.22C102.08,95.09,103.28,103.69,103.18,112.36z M75.36,95.79
	c-0.11,10.34-1.42,20.35-2.9,30.12l8.21,3.56h17.61c0.72-4.89,1.32-9.83,1.27-15.24C92.17,106.97,83.37,100.69,75.36,95.79z
	 M0,108.1v21.37h29.85c1.19-4.52,2.2-8.38,3.15-12.86C18.44,112.23,9.49,110.14,0,108.1z M36.8,117.73
	c-0.91,4.15-1.71,7.73-2.73,11.73h33.67c0.1-0.51,0.2-1.02,0.23-1.46C58.45,124.36,43.87,119.82,36.8,117.73z M103.18,117.96
	c0,4-0.42,8.36-0.9,11.5h9.41C109.56,125.97,106.36,121.7,103.18,117.96z M38.11,13.74c51.56,12.82,86.79,61.41,86.27,114.95
	l0.01,0.78h6.03L130.41,0H0v12.34C7.55,11.2,26.25,10.79,38.11,13.74z M490.92,111.35c-5.03,0-9.12,4.09-9.12,9.2
	c0,5.19,4.09,9.24,9.12,9.24c5.07,0,9.08-4.05,9.08-9.24c0-5.11-4.01-9.2-9.04-9.2H490.92z M490.96,112.78
	c4.09,0,7.36,3.48,7.36,7.81c0,4.33-3.27,7.81-7.36,7.77c-4.09,0-7.4-3.44-7.4-7.81c0-4.29,3.31-7.77,7.36-7.77H490.96z
	 M489.2,121.49h1.14c1.31,0,1.96,0.49,2.21,1.8c0.2,1.35,0.45,2.29,0.69,2.62h1.72c-0.16-0.33-0.41-0.94-0.66-2.54
	c-0.2-1.51-0.82-2.33-1.72-2.5v-0.08c1.11-0.33,2-1.15,2-2.49c0-0.98-0.33-1.68-0.94-2.13c-0.61-0.45-1.64-0.78-3.19-0.78
	c-1.23,0-2.04,0.12-2.9,0.25v10.26h1.64V121.49z M489.2,116.75c0.29-0.04,0.66-0.08,1.19-0.08c1.84,0,2.5,0.9,2.5,1.8
	c0,1.27-1.15,1.76-2.5,1.76h-1.19V116.75z M3.22,168.2c0,0.92-0.1,1.54-0.3,1.83c-0.2,0.3-0.55,0.51-1.07,0.65
	c-0.15,0.07-0.36,0.15-0.64,0.22c-0.44,0.12-0.66,0.29-0.66,0.5c0.02,0.21,0.09,0.35,0.22,0.42c0.13,0.07,0.48,0.1,1.06,0.1
	c0.2,0,0.75-0.01,1.65-0.04c0.9-0.03,1.69-0.04,2.35-0.04c0.99,0,2.02,0.02,3.11,0.06c0.3,0.01,0.49,0.02,0.57,0.02
	c0.32,0,0.54-0.03,0.67-0.09c0.13-0.06,0.19-0.16,0.19-0.32c0-0.43-0.42-0.7-1.25-0.79c-0.21-0.02-0.38-0.03-0.5-0.04
	c-0.32-0.15-0.54-0.37-0.66-0.65c-0.12-0.28-0.18-0.81-0.18-1.6v-8.37v-0.34c0-0.44,0.04-0.72,0.11-0.85
	c0.08-0.13,0.22-0.2,0.43-0.22c0.01,0,0.37,0.09,1.08,0.28c0.7,0.19,1.4,0.28,2.1,0.28c2.1,0,3.86-0.8,5.29-2.39
	c1.42-1.6,2.13-3.6,2.13-6.02c0-2.69-0.77-4.71-2.32-6.06c-1.54-1.35-3.87-2.02-6.97-2.02c-1.14,0-2.37,0.01-3.69,0.04
	c-1.33,0.03-2.08,0.04-2.26,0.04c-0.29,0-0.66-0.01-1.11-0.04c-0.45-0.03-0.76-0.04-0.91-0.04c-0.35,0-0.62,0.05-0.82,0.15
	c-0.2,0.1-0.3,0.23-0.3,0.4c0,0.24,0.08,0.42,0.24,0.51c0.16,0.1,0.45,0.15,0.88,0.15c0.58,0.2,0.98,0.43,1.21,0.71
	c0.23,0.28,0.34,0.78,0.34,1.51V168.2z M7.79,145.98c0-0.89,0.11-1.46,0.34-1.69c0.23-0.24,0.69-0.35,1.39-0.35
	c1.53,0,2.72,0.57,3.57,1.7c0.85,1.13,1.27,2.74,1.27,4.81c0,2.22-0.42,3.99-1.25,5.29c-0.83,1.3-1.94,1.95-3.32,1.95
	c-0.76,0-1.28-0.18-1.57-0.56c-0.29-0.37-0.43-1.16-0.43-2.37V145.98z M22.65,170.01c-0.14,0.37-0.37,0.64-0.67,0.81
	c-0.03,0-0.1,0.01-0.2,0.02c-0.69,0.07-1.04,0.26-1.04,0.56c0,0.2,0.07,0.33,0.2,0.41c0.14,0.07,0.39,0.11,0.77,0.11
	c0.04,0,0.17-0.01,0.36-0.02c0.98-0.04,1.97-0.06,2.96-0.06c0.98,0,1.94,0.02,2.87,0.06c0.17,0.01,0.26,0.02,0.29,0.02
	c0.27,0,0.45-0.03,0.52-0.1c0.07-0.07,0.11-0.18,0.11-0.35c0-0.26-0.19-0.42-0.57-0.5c-0.24-0.04-0.44-0.1-0.59-0.16
	c-0.36-0.03-0.61-0.17-0.76-0.43c-0.14-0.26-0.22-0.71-0.22-1.34v-8.85c0-2.1,0.27-3.78,0.8-5.04c0.53-1.25,1.23-1.88,2.09-1.88
	c0.3,0,0.5,0.28,0.59,0.84c0.03,0.16,0.05,0.29,0.07,0.36c0.12,0.6,0.32,1.02,0.6,1.27c0.28,0.24,0.72,0.36,1.31,0.36
	c0.62,0,1.12-0.24,1.49-0.72c0.37-0.48,0.56-1.14,0.56-1.97c0-0.98-0.24-1.75-0.73-2.31c-0.48-0.56-1.14-0.84-1.98-0.84
	c-0.58,0-1.15,0.18-1.72,0.53c-0.57,0.36-1.16,0.92-1.79,1.69c-0.17,0.21-0.38,0.49-0.64,0.84c-0.39,0.56-0.68,0.84-0.84,0.84
	c-0.06,0-0.12-0.03-0.18-0.08c-0.06-0.05-0.09-0.11-0.09-0.17v-3.24c0-0.15-0.02-0.26-0.07-0.32c-0.05-0.06-0.14-0.09-0.27-0.09
	c-0.08,0-0.4,0.19-0.99,0.55c-0.58,0.37-1.16,0.7-1.73,1.01c-0.2,0.11-0.48,0.25-0.84,0.43c-0.94,0.47-1.41,0.84-1.41,1.11
	c0,0.17,0.2,0.27,0.59,0.3c0.24,0.02,0.43,0.04,0.57,0.07c0.3,0.07,0.5,0.2,0.6,0.37s0.15,0.5,0.15,0.98v13.44
	C22.87,169.14,22.79,169.64,22.65,170.01z M36.51,166.19c0.48,1.39,1.23,2.62,2.25,3.68c0.85,0.86,1.77,1.54,2.76,2.02
	c0.99,0.48,1.95,0.73,2.87,0.73c0.98,0,1.98-0.28,2.98-0.84c1.01-0.56,1.92-1.34,2.74-2.34c0.88-1.06,1.54-2.27,1.99-3.62
	c0.45-1.35,0.67-2.84,0.67-4.46c0-3.21-0.82-5.87-2.46-7.98c-1.64-2.11-3.66-3.17-6.05-3.17c-2.3,0-4.29,1.08-5.96,3.25
	c-1.67,2.17-2.51,4.8-2.51,7.9C35.79,163.19,36.03,164.8,36.51,166.19z M41.27,168.53c-0.8-1.88-1.2-4.31-1.2-7.29
	c0-3,0.37-5.35,1.13-7.08c0.75-1.72,1.77-2.59,3.06-2.59c1.29,0,2.33,0.91,3.13,2.72c0.8,1.81,1.19,4.23,1.19,7.26
	c0,2.94-0.39,5.3-1.17,7.1c-0.78,1.8-1.8,2.7-3.06,2.7C43.1,171.35,42.07,170.41,41.27,168.53z M61.12,150.85
	c0-0.18-0.03-0.32-0.08-0.41c-0.05-0.09-0.13-0.14-0.24-0.14c-0.05,0-0.41,0.22-1.09,0.67c-0.68,0.44-1.41,0.87-2.18,1.27
	c-0.27,0.14-0.65,0.29-1.13,0.46c-0.7,0.23-1.04,0.5-1.04,0.8c0,0.17,0.22,0.28,0.66,0.34c0.23,0.03,0.39,0.05,0.5,0.07
	c0.32,0.08,0.52,0.2,0.61,0.36c0.09,0.17,0.14,0.53,0.14,1.09v17.8c0,1.83-0.1,3.16-0.3,3.99c-0.2,0.83-0.53,1.61-1,2.35
	c-0.26,0.41-0.6,0.83-1.04,1.25c-0.43,0.42-0.65,0.72-0.65,0.89s0.05,0.29,0.14,0.38c0.09,0.08,0.23,0.13,0.43,0.15
	c0.41,0,0.99-0.28,1.74-0.85c0.75-0.57,1.44-1.28,2.08-2.15c0.86-1.15,1.49-2.3,1.87-3.44c0.39-1.14,0.58-2.59,0.58-4.33v-0.91
	V150.85z M58.12,146.88c0.33,0.49,0.78,0.74,1.34,0.74c0.58,0,1.03-0.25,1.37-0.74c0.33-0.49,0.5-1.16,0.5-2.01
	c0-0.88-0.16-1.55-0.49-2.03c-0.33-0.48-0.79-0.71-1.38-0.71c-0.55,0-0.99,0.25-1.33,0.76c-0.34,0.51-0.51,1.17-0.51,1.98
	C57.62,145.72,57.79,146.39,58.12,146.88z M79.13,160.03c0.86,0,1.39-0.09,1.57-0.26c0.19-0.17,0.28-0.69,0.28-1.56
	c0-2.49-0.59-4.44-1.76-5.87c-1.17-1.42-2.77-2.14-4.8-2.14c-2.54,0-4.63,1.09-6.25,3.26c-1.63,2.17-2.44,4.99-2.44,8.46
	c0,3.09,0.79,5.65,2.37,7.69c1.58,2.04,3.55,3.06,5.91,3.06c1.85,0,3.49-0.59,4.94-1.78c1.45-1.19,2.17-2.41,2.17-3.66
	c0-0.2-0.04-0.34-0.11-0.44c-0.08-0.1-0.19-0.15-0.34-0.15c-0.27,0-0.53,0.26-0.77,0.79c-0.24,0.53-0.47,0.91-0.68,1.15
	c-0.51,0.57-1.09,1.01-1.71,1.3c-0.63,0.29-1.31,0.44-2.06,0.44c-1.68,0-3.02-0.79-4.02-2.37c-1-1.58-1.5-3.72-1.5-6.41
	c0-0.65,0.08-1.07,0.25-1.25c0.17-0.18,0.59-0.27,1.27-0.27h5.86H79.13z M76.61,152.5c0.53,0.89,0.8,2.06,0.8,3.52
	c0,1.23-0.32,2.03-0.97,2.41c-0.64,0.38-2.13,0.57-4.47,0.57c-0.74,0-1.25-0.08-1.51-0.25c-0.27-0.17-0.4-0.46-0.4-0.87
	c0-0.61,0.14-1.36,0.42-2.25c0.28-0.9,0.65-1.71,1.1-2.46c0.43-0.68,0.88-1.19,1.35-1.51c0.48-0.33,1-0.49,1.58-0.49
	C75.38,151.17,76.08,151.62,76.61,152.5z M97.37,153.08c0-0.6-0.02-1.01-0.07-1.26c-0.05-0.24-0.13-0.42-0.25-0.53
	c-0.3-0.27-0.86-0.51-1.67-0.7c-0.81-0.19-1.69-0.29-2.65-0.29c-2.56,0-4.7,1.06-6.44,3.16c-1.73,2.11-2.6,4.75-2.6,7.93
	c0,3.12,0.81,5.76,2.43,7.92c1.62,2.16,3.57,3.24,5.86,3.24c1.09,0,2.06-0.25,2.92-0.74c0.86-0.49,1.63-1.25,2.33-2.28
	c0.29-0.44,0.51-0.87,0.68-1.31c0.17-0.43,0.25-0.79,0.25-1.08c0-0.24-0.04-0.42-0.11-0.53c-0.08-0.11-0.19-0.17-0.34-0.17
	c-0.26,0-0.51,0.26-0.76,0.78c-0.25,0.52-0.47,0.9-0.65,1.15c-0.42,0.52-0.87,0.91-1.34,1.17c-0.47,0.27-0.97,0.4-1.5,0.4
	c-1.5,0-2.79-0.97-3.87-2.9c-1.08-1.93-1.61-4.35-1.61-7.27c0-2.22,0.39-4.12,1.16-5.72c0.77-1.59,1.66-2.39,2.66-2.39
	c0.88,0,1.71,0.9,2.48,2.71c0.11,0.26,0.19,0.47,0.25,0.63c0.27,0.63,0.56,1.09,0.88,1.39c0.31,0.29,0.67,0.44,1.08,0.44
	c0.36,0,0.6-0.09,0.72-0.28c0.11-0.19,0.17-0.67,0.17-1.46v-0.43V153.08z M103.3,170.83c0.53,1.07,1.45,1.6,2.75,1.6
	c0.97,0,1.91-0.51,2.82-1.54c0.91-1.03,1.36-2.01,1.36-2.93c0-0.09-0.04-0.17-0.13-0.23c-0.08-0.06-0.18-0.09-0.28-0.09
	c-0.14,0-0.44,0.33-0.91,1c-0.47,0.66-0.95,1-1.44,1c-0.49,0-0.82-0.25-0.99-0.75c-0.17-0.5-0.26-1.84-0.26-4.03v-12.3H109
	c0.33,0,0.55-0.06,0.65-0.18c0.1-0.12,0.15-0.36,0.15-0.71c0-0.35-0.05-0.59-0.15-0.71c-0.1-0.12-0.37-0.18-0.83-0.18h-2.6v-5.01
	v-0.27c0-0.24-0.03-0.4-0.09-0.48c-0.06-0.08-0.19-0.12-0.39-0.14c-0.18,0-0.5,0.45-0.95,1.35c-0.45,0.9-0.94,1.72-1.45,2.46
	c-0.5,0.73-1.13,1.42-1.88,2.08c-0.76,0.66-1.13,1.08-1.13,1.26c0,0.23,0.08,0.38,0.23,0.45c0.15,0.08,0.49,0.11,1.02,0.11h0.93
	v12.3C102.5,167.79,102.77,169.77,103.3,170.83z M123.91,168.1c-0.03,0.82-0.13,1.39-0.31,1.71c-0.17,0.33-0.54,0.58-1.08,0.76
	c-0.09,0-0.23,0.01-0.41,0.02c-0.7,0.06-1.04,0.33-1.04,0.8c0,0.17,0.06,0.3,0.19,0.39c0.13,0.09,0.31,0.14,0.56,0.14
	c0.11,0,0.41-0.01,0.92-0.04c0.51-0.03,0.97-0.04,1.4-0.04c0.92,0,1.88,0.02,2.88,0.06c0.23,0.01,0.37,0.02,0.43,0.02
	c0.45,0,0.76-0.05,0.92-0.15c0.16-0.1,0.24-0.27,0.24-0.51c0-0.21-0.08-0.38-0.25-0.5c-0.17-0.12-0.39-0.18-0.68-0.18h-0.27
	c-0.54,0-0.95-0.18-1.22-0.54s-0.41-0.92-0.41-1.66v-0.18l0.27-17.34c0-0.51,0.04-0.9,0.14-1.17c0.09-0.26,0.22-0.4,0.39-0.4
	c0.09,0,0.22,0.12,0.38,0.36c0.17,0.24,0.3,0.54,0.41,0.89l5.38,17.89c0.02,0.05,0.04,0.12,0.07,0.23c0.62,2.04,1.07,3.06,1.34,3.06
	c0.32,0,0.75-0.87,1.29-2.6l0.09-0.3l5.68-18.71c0.12-0.36,0.25-0.66,0.37-0.9c0.13-0.23,0.24-0.35,0.33-0.35
	c0.18,0,0.32,0.19,0.41,0.57c0.09,0.38,0.14,0.95,0.14,1.73l0.18,17.1v0.34c0,0.77-0.12,1.28-0.36,1.52
	c-0.24,0.24-0.79,0.4-1.64,0.48c-0.06,0.02-0.17,0.05-0.32,0.11c-0.71,0.26-1.07,0.56-1.07,0.91c0,0.12,0.05,0.21,0.15,0.25
	c0.1,0.05,0.3,0.07,0.6,0.07h0.41c0.29,0,1.02-0.01,2.19-0.04c1.17-0.03,2.19-0.04,3.05-0.04c0.36,0,0.88,0.01,1.55,0.04
	c0.67,0.03,1.18,0.04,1.53,0.04c0.56,0,0.91-0.04,1.04-0.11c0.14-0.08,0.2-0.21,0.2-0.41c0-0.26-0.27-0.44-0.82-0.55
	c-0.54-0.11-0.91-0.2-1.09-0.27c-0.23-0.2-0.4-0.48-0.52-0.85c-0.12-0.37-0.2-0.87-0.23-1.49l-0.54-22.41v-0.27
	c0-0.54,0.07-0.91,0.22-1.11c0.14-0.2,0.47-0.34,0.99-0.43c0.08-0.02,0.18-0.03,0.32-0.05c0.77-0.11,1.16-0.34,1.16-0.71
	c0-0.17-0.07-0.29-0.2-0.35c-0.14-0.07-0.42-0.1-0.86-0.1h-3.06h-2c-0.48,0-0.85,0.1-1.1,0.29c-0.25,0.19-0.49,0.64-0.71,1.35
	l-5.2,16.25l-0.02,0.05c-0.18,0.59-0.36,0.89-0.54,0.89c-0.14,0-0.28-0.13-0.42-0.4s-0.34-0.78-0.6-1.55l-5.34-16.21v-0.02
	c-0.17-0.43-0.51-0.64-1.02-0.64h-2.97h-2.02c-0.53,0-0.93,0.05-1.21,0.16c-0.27,0.11-0.41,0.27-0.41,0.5
	c0,0.35,0.43,0.59,1.28,0.71c0.33,0.05,0.58,0.08,0.75,0.11c0.33,0.08,0.58,0.23,0.73,0.45c0.15,0.23,0.23,0.56,0.23,1v0.18
	L123.91,168.1z M161.66,158.26c-0.18,0.35-0.57,0.74-1.16,1.18c-3.31,2.42-5.42,4.24-6.32,5.44c-0.9,1.2-1.35,2.5-1.35,3.87
	c0,1.15,0.32,2.08,0.97,2.77s1.5,1.05,2.56,1.05c0.65,0,1.27-0.14,1.86-0.43c0.59-0.29,1.17-0.72,1.73-1.29
	c0.2-0.2,0.44-0.48,0.73-0.84c0.53-0.62,0.92-0.93,1.18-0.93c0.21,0,0.49,0.41,0.84,1.23c0.17,0.38,0.31,0.69,0.43,0.93
	c0.18,0.35,0.51,0.66,0.98,0.93c0.47,0.27,0.96,0.41,1.48,0.41c0.97,0,1.86-0.45,2.68-1.34c0.82-0.89,1.23-1.8,1.23-2.73
	c0-0.2-0.04-0.35-0.11-0.46c-0.08-0.11-0.17-0.17-0.3-0.17c-0.14,0-0.36,0.25-0.66,0.76c-0.3,0.51-0.69,0.76-1.16,0.76
	c-0.5,0-0.85-0.2-1.04-0.59c-0.19-0.39-0.28-1.3-0.28-2.71v-11.17c0-1.91-0.33-3.17-0.98-3.79c-0.65-0.62-1.86-0.93-3.62-0.93
	c-1.21,0-2.37,0.23-3.47,0.68c-1.1,0.45-2.1,1.12-3.01,2c-0.71,0.7-1.25,1.39-1.62,2.08c-0.37,0.69-0.56,1.35-0.56,1.99
	c0,0.53,0.09,0.92,0.28,1.16c0.19,0.24,0.5,0.36,0.92,0.36c1.33,0,2.23-1.09,2.68-3.27c0.05-0.23,0.08-0.41,0.11-0.55
	c0.21-1,0.64-1.81,1.28-2.42c0.64-0.61,1.36-0.92,2.15-0.92c0.68,0,1.15,0.23,1.42,0.69c0.26,0.46,0.4,1.33,0.4,2.6v1.54
	C161.93,157.2,161.84,157.91,161.66,158.26z M162.12,163.33c0,1.93-0.28,3.42-0.84,4.47c-0.56,1.05-1.35,1.58-2.36,1.58
	c-0.64,0-1.17-0.25-1.59-0.74c-0.42-0.49-0.64-1.11-0.64-1.86c0-0.68,0.19-1.43,0.58-2.23c0.39-0.8,0.92-1.56,1.6-2.25
	c0.11-0.11,0.25-0.26,0.43-0.46c1.09-1.18,1.82-1.78,2.18-1.78c0.24,0,0.41,0.14,0.5,0.42c0.09,0.28,0.14,0.82,0.14,1.63V163.33z
	 M172.3,170.01c-0.14,0.37-0.37,0.64-0.67,0.81c-0.05,0-0.11,0.01-0.21,0.02c-0.67,0.08-1.01,0.26-1.01,0.56
	c0,0.19,0.06,0.33,0.19,0.41c0.13,0.07,0.37,0.11,0.74,0.11c0.05,0,0.17-0.01,0.36-0.02c0.98-0.04,1.98-0.06,3-0.06
	c0.97,0,1.92,0.02,2.86,0.06c0.17,0.01,0.26,0.02,0.29,0.02c0.27,0,0.45-0.03,0.55-0.1c0.09-0.07,0.14-0.18,0.16-0.35
	c-0.02-0.26-0.22-0.42-0.61-0.5c-0.26-0.04-0.46-0.1-0.61-0.16c-0.35-0.03-0.6-0.17-0.75-0.43c-0.15-0.26-0.23-0.7-0.23-1.34v-11.27
	c0-1.88,0.35-3.26,1.05-4.14c0.7-0.88,1.78-1.33,3.25-1.33c1.23,0,2.12,0.37,2.66,1.11c0.55,0.74,0.82,1.97,0.82,3.68v11.25
	c0,0.85-0.05,1.42-0.16,1.73c-0.11,0.31-0.3,0.56-0.59,0.74c-0.09,0.05-0.25,0.08-0.48,0.11c-0.5,0.08-0.75,0.29-0.77,0.63
	c0,0.12,0.05,0.21,0.16,0.27c0.11,0.06,0.3,0.09,0.59,0.09c0.29,0,0.61-0.01,0.97-0.02c0.36-0.01,0.58-0.02,0.66-0.02
	c0.09,0,0.32-0.01,0.69-0.02c0.37-0.01,0.69-0.02,0.96-0.02c0.38,0,0.85,0.01,1.4,0.04s0.93,0.04,1.11,0.04h0.52
	c0.53,0,0.88-0.03,1.05-0.1c0.17-0.07,0.25-0.18,0.25-0.35c0-0.33-0.3-0.51-0.89-0.54c-0.36-0.03-0.61-0.07-0.75-0.11
	c-0.33-0.18-0.57-0.41-0.7-0.69c-0.13-0.28-0.19-0.9-0.19-1.87v-10.36c0-2.71-0.44-4.66-1.33-5.85c-0.88-1.19-2.32-1.78-4.3-1.78
	c-0.77,0-1.52,0.15-2.25,0.44c-0.73,0.29-1.54,0.8-2.45,1.51c-0.21,0.17-0.49,0.4-0.83,0.7c-0.34,0.3-0.56,0.45-0.65,0.45
	c-0.06-0.02-0.11-0.05-0.16-0.1c-0.05-0.05-0.07-0.11-0.07-0.17c0-0.02-0.01-0.1-0.02-0.25c-0.02-0.15-0.02-0.29-0.02-0.41v-1.77
	c0-0.15-0.02-0.26-0.06-0.32c-0.04-0.06-0.13-0.09-0.28-0.09c-0.08,0-0.4,0.19-0.99,0.55c-0.58,0.37-1.16,0.7-1.73,1.01
	c-0.18,0.11-0.43,0.24-0.75,0.39c-0.97,0.5-1.45,0.89-1.45,1.16c0,0.17,0.19,0.26,0.57,0.29c0.23,0.02,0.41,0.04,0.54,0.07
	c0.32,0.08,0.52,0.2,0.61,0.37c0.09,0.17,0.14,0.5,0.14,0.99v13.43C172.51,169.14,172.44,169.64,172.3,170.01z M201.9,158.26
	c-0.18,0.35-0.57,0.74-1.16,1.18c-3.31,2.42-5.42,4.24-6.32,5.44c-0.9,1.2-1.35,2.5-1.35,3.87c0,1.15,0.32,2.08,0.97,2.77
	c0.64,0.7,1.5,1.05,2.56,1.05c0.65,0,1.27-0.14,1.86-0.43c0.59-0.29,1.17-0.72,1.73-1.29c0.2-0.2,0.44-0.48,0.73-0.84
	c0.53-0.62,0.92-0.93,1.18-0.93c0.21,0,0.49,0.41,0.84,1.23c0.17,0.38,0.31,0.69,0.43,0.93c0.18,0.35,0.51,0.66,0.98,0.93
	c0.47,0.27,0.96,0.41,1.48,0.41c0.97,0,1.86-0.45,2.68-1.34c0.82-0.89,1.23-1.8,1.23-2.73c0-0.2-0.04-0.35-0.11-0.46
	c-0.08-0.11-0.17-0.17-0.3-0.17c-0.14,0-0.36,0.25-0.66,0.76c-0.3,0.51-0.69,0.76-1.16,0.76c-0.5,0-0.85-0.2-1.04-0.59
	c-0.19-0.39-0.29-1.3-0.29-2.71v-11.17c0-1.91-0.33-3.17-0.98-3.79c-0.65-0.62-1.86-0.93-3.62-0.93c-1.21,0-2.37,0.23-3.47,0.68
	c-1.1,0.45-2.1,1.12-3.01,2c-0.71,0.7-1.25,1.39-1.62,2.08c-0.37,0.69-0.56,1.35-0.56,1.99c0,0.53,0.09,0.92,0.28,1.16
	c0.19,0.24,0.5,0.36,0.92,0.36c1.33,0,2.23-1.09,2.68-3.27c0.05-0.23,0.08-0.41,0.11-0.55c0.21-1,0.64-1.81,1.28-2.42
	c0.64-0.61,1.36-0.92,2.15-0.92c0.68,0,1.15,0.23,1.42,0.69c0.26,0.46,0.4,1.33,0.4,2.6v1.54
	C202.18,157.2,202.09,157.91,201.9,158.26z M202.36,163.33c0,1.93-0.28,3.42-0.84,4.47c-0.56,1.05-1.35,1.58-2.36,1.58
	c-0.64,0-1.17-0.25-1.59-0.74c-0.42-0.49-0.64-1.11-0.64-1.86c0-0.68,0.19-1.43,0.58-2.23c0.39-0.8,0.92-1.56,1.6-2.25
	c0.11-0.11,0.25-0.26,0.43-0.46c1.09-1.18,1.82-1.78,2.18-1.78c0.24,0,0.41,0.14,0.5,0.42c0.09,0.28,0.14,0.82,0.14,1.63V163.33z
	 M226.58,153.41v-1.72h-1.86c-1,0-1.67-0.01-2.01-0.04c-0.34-0.03-0.6-0.08-0.78-0.14c-0.17-0.06-0.43-0.17-0.8-0.34
	c-1.36-0.6-2.59-0.91-3.68-0.91c-1.89,0-3.48,0.7-4.75,2.09c-1.27,1.39-1.91,3.14-1.91,5.24c0,1.27,0.24,2.37,0.72,3.29
	c0.48,0.92,1.33,1.88,2.54,2.88c0.06,0.05,0.13,0.1,0.21,0.16c0.27,0.21,0.41,0.42,0.41,0.64c0,0.2-0.49,0.58-1.46,1.16
	c-0.36,0.23-0.65,0.4-0.87,0.52c-0.55,0.35-0.92,0.64-1.12,0.86c-0.2,0.23-0.3,0.47-0.3,0.73s0.09,0.54,0.27,0.84
	c0.18,0.3,0.52,0.7,1,1.2c0.12,0.14,0.3,0.32,0.52,0.54c0.67,0.68,1,1.14,1,1.36c0,0.17-0.23,0.43-0.68,0.8
	c-0.15,0.12-0.27,0.21-0.34,0.27c-1.05,0.86-1.75,1.6-2.1,2.23c-0.36,0.62-0.53,1.32-0.53,2.09c0,1.51,0.66,2.74,1.98,3.68
	c1.32,0.94,3.06,1.41,5.22,1.41c2.77,0,5.03-0.74,6.78-2.21c1.75-1.48,2.62-3.36,2.62-5.64c0-1.85-0.59-3.26-1.77-4.22
	c-1.18-0.97-3-1.55-5.45-1.75c-0.33-0.02-0.82-0.04-1.45-0.07c-2.53-0.15-3.79-0.65-3.79-1.5c0-0.71,0.87-1.24,2.61-1.57
	c0.51-0.11,0.92-0.19,1.2-0.25c2.16-0.48,3.81-1.38,4.95-2.69c1.14-1.31,1.7-2.99,1.7-5.03c0-0.74-0.09-1.43-0.26-2.07
	c-0.18-0.64-0.45-1.25-0.84-1.84H226.58z M214.03,173.14c0.69-0.85,1.52-1.27,2.49-1.27c2.42,0,4.23,0.36,5.42,1.07
	c1.2,0.71,1.79,1.78,1.79,3.21s-0.48,2.59-1.45,3.49c-0.97,0.9-2.21,1.35-3.72,1.35c-1.66,0-3.01-0.45-4.03-1.34
	c-1.02-0.89-1.53-2.06-1.53-3.5C213,174.99,213.34,173.99,214.03,173.14z M220.02,152.94c0.54,1.14,0.81,2.82,0.81,5.03
	c0,1.88-0.26,3.35-0.78,4.43c-0.52,1.07-1.22,1.61-2.1,1.61c-1.03,0-1.81-0.55-2.34-1.65c-0.53-1.1-0.8-2.72-0.8-4.87
	c0-2.01,0.25-3.56,0.75-4.64c0.5-1.08,1.21-1.62,2.14-1.62C218.7,151.23,219.48,151.8,220.02,152.94z M241.08,160.03
	c0.86,0,1.38-0.09,1.57-0.26c0.19-0.17,0.28-0.69,0.28-1.56c0-2.49-0.59-4.44-1.76-5.87c-1.17-1.42-2.77-2.14-4.8-2.14
	c-2.54,0-4.63,1.09-6.26,3.26c-1.63,2.17-2.44,4.99-2.44,8.46c0,3.09,0.79,5.65,2.37,7.69c1.58,2.04,3.55,3.06,5.91,3.06
	c1.85,0,3.49-0.59,4.94-1.78c1.44-1.19,2.17-2.41,2.17-3.66c0-0.2-0.04-0.34-0.11-0.44c-0.08-0.1-0.19-0.15-0.34-0.15
	c-0.27,0-0.53,0.26-0.77,0.79c-0.24,0.53-0.47,0.91-0.68,1.15c-0.51,0.57-1.09,1.01-1.72,1.3c-0.63,0.29-1.31,0.44-2.06,0.44
	c-1.68,0-3.02-0.79-4.02-2.37c-1-1.58-1.5-3.72-1.5-6.41c0-0.65,0.08-1.07,0.25-1.25c0.17-0.18,0.59-0.27,1.27-0.27h5.86H241.08z
	 M238.56,152.5c0.53,0.89,0.8,2.06,0.8,3.52c0,1.23-0.32,2.03-0.97,2.41c-0.64,0.38-2.13,0.57-4.47,0.57
	c-0.74,0-1.25-0.08-1.51-0.25c-0.26-0.17-0.4-0.46-0.4-0.87c0-0.61,0.14-1.36,0.42-2.25c0.28-0.9,0.65-1.71,1.1-2.46
	c0.42-0.68,0.87-1.19,1.35-1.51c0.48-0.33,1-0.49,1.58-0.49C237.34,151.17,238.03,151.62,238.56,152.5z M259.24,168.52
	c0,0.62-0.07,1.12-0.22,1.49c-0.14,0.37-0.37,0.64-0.67,0.81c-0.05,0-0.11,0.01-0.21,0.02c-0.67,0.08-1,0.26-1,0.56
	c0,0.19,0.07,0.33,0.22,0.41c0.14,0.07,0.4,0.11,0.76,0.11c0.05,0,0.17-0.01,0.36-0.02c0.95-0.04,1.94-0.06,2.95-0.06
	c0.97,0,1.92,0.02,2.86,0.06c0.17,0.01,0.27,0.02,0.3,0.02c0.27,0,0.45-0.03,0.54-0.1c0.09-0.07,0.14-0.18,0.16-0.35
	c-0.01-0.26-0.22-0.42-0.61-0.5c-0.26-0.04-0.46-0.1-0.61-0.16c-0.35-0.03-0.6-0.17-0.75-0.43c-0.15-0.26-0.23-0.7-0.23-1.34v-11.27
	c0-1.88,0.35-3.26,1.05-4.14c0.7-0.88,1.78-1.33,3.25-1.33c1.23,0,2.11,0.37,2.66,1.11c0.54,0.74,0.82,1.97,0.82,3.68v11.25
	c0,0.85-0.05,1.42-0.16,1.73c-0.11,0.31-0.3,0.56-0.59,0.74c-0.09,0.05-0.25,0.08-0.48,0.11c-0.5,0.08-0.76,0.29-0.77,0.63
	c0,0.12,0.05,0.21,0.16,0.27c0.1,0.06,0.3,0.09,0.59,0.09h1.63c0.09,0,0.32-0.01,0.69-0.04c0.37-0.03,0.69-0.04,0.97-0.04
	c0.38,0,0.85,0.01,1.41,0.04c0.56,0.03,0.93,0.04,1.11,0.04h0.52c0.53,0,0.88-0.03,1.04-0.1c0.17-0.07,0.25-0.18,0.25-0.35
	c0-0.33-0.29-0.51-0.86-0.54c-0.35-0.03-0.59-0.07-0.73-0.11c-0.33-0.18-0.56-0.41-0.69-0.69c-0.13-0.28-0.19-0.9-0.19-1.87v-10.36
	c0-2.69-0.45-4.64-1.35-5.84c-0.9-1.2-2.34-1.79-4.33-1.79c-0.77,0-1.53,0.16-2.28,0.47c-0.75,0.31-1.53,0.81-2.35,1.49
	c-0.17,0.12-0.39,0.3-0.66,0.52c-0.47,0.39-0.78,0.59-0.93,0.59c-0.12,0-0.29-0.14-0.52-0.43c-0.12-0.15-0.21-0.25-0.25-0.3
	c-0.8-0.89-1.54-1.51-2.23-1.84c-0.68-0.33-1.46-0.5-2.34-0.5c-0.8,0-1.57,0.15-2.31,0.44c-0.73,0.29-1.56,0.8-2.46,1.51
	c-0.21,0.17-0.49,0.4-0.83,0.7c-0.34,0.3-0.56,0.45-0.65,0.45c-0.06-0.02-0.11-0.05-0.16-0.1c-0.05-0.05-0.07-0.11-0.07-0.17
	c0-0.02-0.01-0.1-0.02-0.25c-0.02-0.15-0.02-0.29-0.02-0.41v-1.77c0-0.15-0.02-0.26-0.06-0.32c-0.04-0.06-0.13-0.09-0.28-0.09
	c-0.08,0-0.4,0.19-0.98,0.55c-0.58,0.37-1.16,0.7-1.73,1.01c-0.18,0.11-0.43,0.24-0.75,0.39c-0.97,0.5-1.45,0.89-1.45,1.16
	c0,0.17,0.19,0.26,0.57,0.29c0.23,0.02,0.41,0.04,0.54,0.07c0.32,0.08,0.52,0.2,0.61,0.37c0.09,0.17,0.13,0.5,0.13,0.99v13.43
	c0,0.62-0.07,1.12-0.22,1.49c-0.14,0.37-0.36,0.64-0.67,0.81c-0.05,0-0.12,0.01-0.21,0.02c-0.67,0.08-1.01,0.26-1.01,0.56
	c0,0.19,0.07,0.33,0.19,0.41c0.13,0.07,0.38,0.11,0.74,0.11c0.05,0,0.17-0.01,0.36-0.02c0.98-0.04,1.98-0.06,3-0.06
	c0.97,0,1.92,0.02,2.86,0.06c0.17,0.01,0.27,0.02,0.3,0.02c0.27,0,0.45-0.03,0.54-0.1c0.09-0.07,0.14-0.18,0.16-0.35
	c-0.01-0.26-0.22-0.42-0.61-0.5c-0.26-0.04-0.46-0.1-0.61-0.16c-0.35-0.03-0.6-0.17-0.75-0.43c-0.15-0.26-0.23-0.7-0.23-1.34v-11.27
	c0-1.88,0.35-3.26,1.05-4.14c0.7-0.88,1.78-1.33,3.25-1.33c1.2,0,2.08,0.37,2.64,1.12c0.56,0.75,0.84,1.94,0.84,3.57V168.52z
	 M292.79,160.03c0.86,0,1.38-0.09,1.57-0.26c0.19-0.17,0.28-0.69,0.28-1.56c0-2.49-0.59-4.44-1.76-5.87
	c-1.17-1.42-2.78-2.14-4.8-2.14c-2.54,0-4.63,1.09-6.25,3.26c-1.63,2.17-2.44,4.99-2.44,8.46c0,3.09,0.79,5.65,2.37,7.69
	c1.58,2.04,3.55,3.06,5.91,3.06c1.85,0,3.49-0.59,4.94-1.78c1.44-1.19,2.17-2.41,2.17-3.66c0-0.2-0.04-0.34-0.11-0.44
	c-0.08-0.1-0.19-0.15-0.34-0.15c-0.27,0-0.53,0.26-0.77,0.79c-0.24,0.53-0.47,0.91-0.68,1.15c-0.51,0.57-1.09,1.01-1.72,1.3
	c-0.63,0.29-1.31,0.44-2.06,0.44c-1.68,0-3.02-0.79-4.02-2.37c-1-1.58-1.5-3.72-1.5-6.41c0-0.65,0.08-1.07,0.25-1.25
	s0.59-0.27,1.27-0.27h5.86H292.79z M290.27,152.5c0.53,0.89,0.8,2.06,0.8,3.52c0,1.23-0.32,2.03-0.97,2.41
	c-0.64,0.38-2.13,0.57-4.47,0.57c-0.74,0-1.25-0.08-1.51-0.25c-0.27-0.17-0.4-0.46-0.4-0.87c0-0.61,0.14-1.36,0.42-2.25
	c0.28-0.9,0.65-1.71,1.1-2.46c0.42-0.68,0.87-1.19,1.35-1.51c0.48-0.33,1-0.49,1.58-0.49C289.05,151.17,289.74,151.62,290.27,152.5z
	 M299.11,170.01c-0.14,0.37-0.37,0.64-0.67,0.81c-0.05,0-0.11,0.01-0.21,0.02c-0.67,0.08-1.01,0.26-1.01,0.56
	c0,0.19,0.06,0.33,0.19,0.41c0.13,0.07,0.37,0.11,0.74,0.11c0.05,0,0.17-0.01,0.36-0.02c0.98-0.04,1.98-0.06,3-0.06
	c0.97,0,1.92,0.02,2.86,0.06c0.17,0.01,0.26,0.02,0.29,0.02c0.27,0,0.46-0.03,0.55-0.1c0.09-0.07,0.14-0.18,0.16-0.35
	c-0.02-0.26-0.22-0.42-0.61-0.5c-0.26-0.04-0.46-0.1-0.61-0.16c-0.35-0.03-0.6-0.17-0.75-0.43c-0.15-0.26-0.23-0.7-0.23-1.34v-11.27
	c0-1.88,0.35-3.26,1.05-4.14c0.7-0.88,1.78-1.33,3.25-1.33c1.23,0,2.12,0.37,2.66,1.11c0.55,0.74,0.82,1.97,0.82,3.68v11.25
	c0,0.85-0.05,1.42-0.16,1.73c-0.11,0.31-0.3,0.56-0.59,0.74c-0.09,0.05-0.25,0.08-0.47,0.11c-0.5,0.08-0.76,0.29-0.77,0.63
	c0,0.12,0.05,0.21,0.16,0.27c0.11,0.06,0.3,0.09,0.59,0.09c0.29,0,0.61-0.01,0.98-0.02c0.36-0.01,0.58-0.02,0.66-0.02
	c0.09,0,0.32-0.01,0.69-0.02c0.37-0.01,0.69-0.02,0.96-0.02c0.38,0,0.85,0.01,1.4,0.04s0.93,0.04,1.11,0.04h0.52
	c0.53,0,0.88-0.03,1.05-0.1c0.17-0.07,0.25-0.18,0.25-0.35c0-0.33-0.3-0.51-0.89-0.54c-0.36-0.03-0.62-0.07-0.75-0.11
	c-0.33-0.18-0.57-0.41-0.69-0.69c-0.13-0.28-0.19-0.9-0.19-1.87v-10.36c0-2.71-0.44-4.66-1.33-5.85c-0.88-1.19-2.32-1.78-4.3-1.78
	c-0.77,0-1.52,0.15-2.25,0.44c-0.73,0.29-1.54,0.8-2.45,1.51c-0.21,0.17-0.49,0.4-0.83,0.7c-0.34,0.3-0.56,0.45-0.65,0.45
	c-0.06-0.02-0.11-0.05-0.16-0.1c-0.05-0.05-0.07-0.11-0.07-0.17c0-0.02-0.01-0.1-0.02-0.25s-0.02-0.29-0.02-0.41v-1.77
	c0-0.15-0.02-0.26-0.06-0.32c-0.04-0.06-0.13-0.09-0.28-0.09c-0.08,0-0.4,0.19-0.99,0.55c-0.58,0.37-1.16,0.7-1.73,1.01
	c-0.18,0.11-0.43,0.24-0.75,0.39c-0.97,0.5-1.45,0.89-1.45,1.16c0,0.17,0.19,0.26,0.57,0.29c0.23,0.02,0.41,0.04,0.54,0.07
	c0.32,0.08,0.52,0.2,0.61,0.37c0.09,0.17,0.14,0.5,0.14,0.99v13.43C299.32,169.14,299.25,169.64,299.11,170.01z M321.96,170.83
	c0.53,1.07,1.44,1.6,2.75,1.6c0.97,0,1.91-0.51,2.82-1.54c0.91-1.03,1.36-2.01,1.36-2.93c0-0.09-0.04-0.17-0.12-0.23
	c-0.08-0.06-0.18-0.09-0.29-0.09c-0.14,0-0.44,0.33-0.91,1c-0.47,0.66-0.95,1-1.43,1s-0.82-0.25-0.99-0.75
	c-0.17-0.5-0.26-1.84-0.26-4.03v-12.3h2.79c0.33,0,0.55-0.06,0.65-0.18c0.1-0.12,0.15-0.36,0.15-0.71c0-0.35-0.05-0.59-0.15-0.71
	c-0.1-0.12-0.37-0.18-0.83-0.18h-2.61v-5.01v-0.27c0-0.24-0.03-0.4-0.09-0.48c-0.06-0.08-0.19-0.12-0.39-0.14
	c-0.18,0-0.5,0.45-0.95,1.35c-0.45,0.9-0.94,1.72-1.45,2.46c-0.5,0.73-1.13,1.42-1.88,2.08c-0.76,0.66-1.13,1.08-1.13,1.26
	c0,0.23,0.08,0.38,0.23,0.45c0.15,0.08,0.49,0.11,1.02,0.11h0.93v12.3C321.16,167.79,321.43,169.77,321.96,170.83z M348.12,146.07
	c0-0.88,0.09-1.41,0.26-1.6c0.17-0.19,0.54-0.31,1.1-0.35c0.06-0.02,0.17-0.05,0.34-0.09c0.68-0.17,1.03-0.4,1.04-0.71
	c0-0.18-0.1-0.32-0.31-0.41c-0.2-0.09-0.51-0.14-0.92-0.14c-0.39,0-1.02,0.01-1.87,0.04c-0.85,0.03-1.52,0.04-1.98,0.04
	c-1.14,0-2.29-0.02-3.47-0.06c-0.24-0.01-0.39-0.02-0.43-0.02c-0.33,0-0.57,0.04-0.71,0.11c-0.14,0.08-0.22,0.21-0.22,0.39
	c0,0.39,0.37,0.64,1.11,0.73c0.32,0.03,0.55,0.07,0.7,0.11c0.3,0.14,0.51,0.33,0.62,0.59c0.11,0.26,0.17,0.74,0.17,1.45v22.03
	c0,0.92-0.1,1.53-0.29,1.81c-0.2,0.29-0.55,0.49-1.06,0.61c-0.15,0.09-0.38,0.18-0.68,0.27c-0.44,0.12-0.66,0.29-0.66,0.5
	c0,0.2,0.07,0.33,0.21,0.41c0.13,0.08,0.51,0.11,1.11,0.11c0.2,0,0.75-0.01,1.65-0.04c0.9-0.03,1.68-0.04,2.35-0.04
	c0.98,0,2.02,0.02,3.11,0.06c0.3,0.01,0.49,0.02,0.57,0.02c0.32,0,0.54-0.03,0.67-0.09c0.13-0.06,0.19-0.17,0.19-0.32
	c0-0.42-0.39-0.69-1.18-0.79c-0.26-0.05-0.45-0.08-0.57-0.09c-0.32-0.14-0.53-0.34-0.66-0.61c-0.12-0.27-0.18-0.8-0.18-1.59V146.07z
	 M355.28,170.01c-0.14,0.37-0.36,0.64-0.67,0.81c-0.05,0-0.11,0.01-0.21,0.02c-0.67,0.08-1.01,0.26-1.01,0.56
	c0,0.19,0.06,0.33,0.19,0.41c0.13,0.07,0.37,0.11,0.74,0.11c0.05,0,0.17-0.01,0.36-0.02c0.98-0.04,1.98-0.06,3-0.06
	c0.97,0,1.92,0.02,2.86,0.06c0.17,0.01,0.26,0.02,0.29,0.02c0.27,0,0.45-0.03,0.54-0.1c0.09-0.07,0.14-0.18,0.16-0.35
	c-0.01-0.26-0.22-0.42-0.61-0.5c-0.26-0.04-0.46-0.1-0.62-0.16c-0.35-0.03-0.6-0.17-0.75-0.43c-0.15-0.26-0.23-0.7-0.23-1.34v-11.27
	c0-1.88,0.35-3.26,1.05-4.14c0.7-0.88,1.78-1.33,3.25-1.33c1.23,0,2.12,0.37,2.66,1.11c0.55,0.74,0.82,1.97,0.82,3.68v11.25
	c0,0.85-0.05,1.42-0.16,1.73c-0.11,0.31-0.3,0.56-0.59,0.74c-0.09,0.05-0.25,0.08-0.48,0.11c-0.5,0.08-0.75,0.29-0.77,0.63
	c0,0.12,0.05,0.21,0.16,0.27c0.11,0.06,0.3,0.09,0.59,0.09c0.29,0,0.61-0.01,0.97-0.02c0.36-0.01,0.58-0.02,0.66-0.02
	c0.09,0,0.32-0.01,0.69-0.02c0.37-0.01,0.69-0.02,0.96-0.02c0.38,0,0.85,0.01,1.4,0.04c0.56,0.03,0.93,0.04,1.11,0.04h0.52
	c0.53,0,0.88-0.03,1.05-0.1c0.17-0.07,0.25-0.18,0.25-0.35c0-0.33-0.3-0.51-0.89-0.54c-0.36-0.03-0.61-0.07-0.75-0.11
	c-0.34-0.18-0.57-0.41-0.7-0.69c-0.13-0.28-0.19-0.9-0.19-1.87v-10.36c0-2.71-0.44-4.66-1.33-5.85c-0.88-1.19-2.32-1.78-4.3-1.78
	c-0.77,0-1.52,0.15-2.25,0.44c-0.73,0.29-1.54,0.8-2.45,1.51c-0.21,0.17-0.49,0.4-0.83,0.7c-0.34,0.3-0.56,0.45-0.65,0.45
	c-0.06-0.02-0.11-0.05-0.16-0.1c-0.05-0.05-0.07-0.11-0.07-0.17c0-0.02-0.01-0.1-0.02-0.25c-0.02-0.15-0.02-0.29-0.02-0.41v-1.77
	c0-0.15-0.02-0.26-0.06-0.32c-0.04-0.06-0.13-0.09-0.28-0.09c-0.08,0-0.4,0.19-0.99,0.55c-0.58,0.37-1.16,0.7-1.73,1.01
	c-0.18,0.11-0.43,0.24-0.75,0.39c-0.97,0.5-1.45,0.89-1.45,1.16c0,0.17,0.19,0.26,0.57,0.29c0.23,0.02,0.41,0.04,0.54,0.07
	c0.32,0.08,0.52,0.2,0.61,0.37c0.09,0.17,0.14,0.5,0.14,0.99v13.43C355.49,169.14,355.42,169.64,355.28,170.01z M387.45,152.53
	v-0.89c0-0.48-0.35-0.84-1.07-1.06c-0.71-0.22-1.83-0.33-3.36-0.33c-2.13,0-3.87,0.56-5.23,1.69c-1.35,1.13-2.03,2.56-2.03,4.3
	c0,0.74,0.15,1.43,0.46,2.08s0.74,1.19,1.3,1.65c0.76,0.59,1.84,1.28,3.25,2.06c1.41,0.78,2.34,1.38,2.8,1.8
	c0.56,0.51,0.97,1.08,1.24,1.7c0.27,0.62,0.41,1.32,0.41,2.11c0,1.15-0.3,2.07-0.89,2.77c-0.6,0.7-1.39,1.04-2.39,1.04
	c-1.59,0-2.96-1.47-4.12-4.42c-0.09-0.21-0.16-0.37-0.2-0.48c-0.18-0.44-0.36-0.74-0.52-0.91c-0.17-0.17-0.38-0.25-0.64-0.25
	c-0.26,0-0.44,0.1-0.54,0.3c-0.11,0.2-0.16,0.64-0.16,1.34v3.06c0,0.96,0.35,1.62,1.04,1.95c0.7,0.34,2,0.51,3.9,0.51
	c2.34,0,4.23-0.62,5.66-1.87c1.43-1.25,2.14-2.88,2.14-4.91c0-1.15-0.26-2.19-0.8-3.13c-0.53-0.94-1.32-1.77-2.38-2.5
	c-0.59-0.42-1.64-1.06-3.16-1.89c-1.51-0.84-2.49-1.58-2.93-2.24c-0.15-0.23-0.26-0.48-0.34-0.75c-0.08-0.27-0.11-0.57-0.11-0.89
	c0-0.88,0.32-1.61,0.97-2.21c0.65-0.6,1.47-0.9,2.45-0.9c0.74,0,1.37,0.2,1.89,0.61s0.98,1.06,1.37,1.95
	c0.06,0.15,0.15,0.39,0.27,0.73c0.27,0.8,0.61,1.2,1.02,1.2c0.26,0,0.43-0.08,0.52-0.24c0.09-0.16,0.14-0.56,0.14-1.19v-0.52V152.53
	z M394.07,170.83c0.53,1.07,1.45,1.6,2.75,1.6c0.97,0,1.91-0.51,2.82-1.54c0.91-1.03,1.36-2.01,1.36-2.93
	c0-0.09-0.04-0.17-0.13-0.23c-0.08-0.06-0.18-0.09-0.28-0.09c-0.14,0-0.44,0.33-0.91,1c-0.47,0.66-0.95,1-1.43,1
	s-0.82-0.25-0.99-0.75c-0.17-0.5-0.26-1.84-0.26-4.03v-12.3h2.79c0.33,0,0.55-0.06,0.64-0.18c0.1-0.12,0.15-0.36,0.15-0.71
	c0-0.35-0.05-0.59-0.15-0.71c-0.1-0.12-0.37-0.18-0.83-0.18h-2.61v-5.01v-0.27c0-0.24-0.03-0.4-0.09-0.48
	c-0.06-0.08-0.19-0.12-0.39-0.14c-0.18,0-0.5,0.45-0.95,1.35c-0.45,0.9-0.94,1.72-1.45,2.46c-0.5,0.73-1.13,1.42-1.88,2.08
	c-0.76,0.66-1.13,1.08-1.13,1.26c0,0.23,0.08,0.38,0.23,0.45c0.15,0.08,0.49,0.11,1.02,0.11h0.93v12.3
	C393.27,167.79,393.54,169.77,394.07,170.83z M404.47,170.01c-0.14,0.37-0.37,0.64-0.67,0.81c-0.05,0-0.11,0.01-0.21,0.02
	c-0.67,0.08-1.01,0.26-1.01,0.56c0,0.19,0.07,0.33,0.22,0.41c0.14,0.07,0.4,0.11,0.76,0.11c0.05,0,0.17-0.01,0.36-0.02
	c0.95-0.04,1.94-0.06,2.95-0.06c0.97,0,1.92,0.02,2.86,0.06c0.17,0.01,0.26,0.02,0.29,0.02c0.27,0,0.46-0.03,0.55-0.1
	c0.09-0.07,0.14-0.18,0.16-0.35c-0.02-0.26-0.22-0.42-0.62-0.5c-0.26-0.04-0.46-0.1-0.62-0.16c-0.35-0.03-0.6-0.17-0.75-0.43
	c-0.15-0.26-0.23-0.7-0.23-1.34v-18.19c0-0.19-0.03-0.33-0.08-0.42c-0.05-0.08-0.13-0.12-0.24-0.12c-0.05,0-0.41,0.22-1.09,0.67
	c-0.68,0.44-1.4,0.87-2.15,1.27c-0.27,0.14-0.65,0.29-1.13,0.46c-0.68,0.23-1.02,0.5-1.02,0.8c0.02,0.18,0.22,0.3,0.61,0.34
	c0.23,0.03,0.39,0.05,0.5,0.07c0.3,0.08,0.5,0.2,0.6,0.37c0.1,0.17,0.15,0.5,0.15,0.99v13.24
	C404.69,169.14,404.62,169.64,404.47,170.01z M405.56,146.88c0.33,0.49,0.79,0.74,1.36,0.74c0.56,0,1.01-0.25,1.35-0.74
	c0.34-0.49,0.51-1.16,0.51-2.01c0-0.88-0.16-1.55-0.49-2.03c-0.32-0.48-0.78-0.71-1.37-0.71c-0.56,0-1.01,0.25-1.35,0.76
	c-0.34,0.51-0.51,1.17-0.51,1.98C405.06,145.72,405.23,146.39,405.56,146.88z M415.58,170.83c0.53,1.07,1.44,1.6,2.75,1.6
	c0.97,0,1.91-0.51,2.82-1.54c0.91-1.03,1.36-2.01,1.36-2.93c0-0.09-0.04-0.17-0.12-0.23c-0.08-0.06-0.18-0.09-0.29-0.09
	c-0.14,0-0.44,0.33-0.91,1c-0.47,0.66-0.95,1-1.43,1s-0.82-0.25-0.99-0.75c-0.17-0.5-0.26-1.84-0.26-4.03v-12.3h2.79
	c0.33,0,0.55-0.06,0.65-0.18c0.1-0.12,0.15-0.36,0.15-0.71c0-0.35-0.05-0.59-0.15-0.71c-0.1-0.12-0.37-0.18-0.83-0.18h-2.61v-5.01
	v-0.27c0-0.24-0.03-0.4-0.09-0.48c-0.06-0.08-0.19-0.12-0.39-0.14c-0.18,0-0.5,0.45-0.95,1.35c-0.45,0.9-0.94,1.72-1.45,2.46
	c-0.5,0.73-1.13,1.42-1.88,2.08c-0.76,0.66-1.13,1.08-1.13,1.26c0,0.23,0.08,0.38,0.23,0.45c0.15,0.08,0.49,0.11,1.02,0.11h0.93
	v12.3C414.79,167.79,415.05,169.77,415.58,170.83z M427.39,170.78c0.88,1.17,2.32,1.76,4.3,1.76c0.82,0,1.6-0.15,2.34-0.44
	c0.74-0.3,1.53-0.77,2.36-1.42c0.23-0.18,0.51-0.42,0.84-0.71c0.33-0.3,0.54-0.44,0.64-0.44c0.06,0,0.13,0.02,0.19,0.07
	c0.07,0.05,0.1,0.1,0.1,0.16v2.26c0,0.18,0.02,0.32,0.07,0.4c0.05,0.08,0.13,0.13,0.25,0.13c0.06,0,0.37-0.18,0.93-0.54
	c0.56-0.36,1.16-0.68,1.81-0.97c0.27-0.18,0.64-0.41,1.09-0.68c0.76-0.45,1.14-0.8,1.14-1.04c0-0.17-0.21-0.28-0.64-0.34
	c-0.21-0.02-0.39-0.04-0.52-0.07c-0.3-0.08-0.5-0.2-0.6-0.37c-0.1-0.17-0.15-0.5-0.15-0.99v-15.77c0-0.45-0.09-0.75-0.26-0.89
	c-0.17-0.14-0.52-0.22-1.03-0.22c-0.33,0-0.81,0.01-1.43,0.04c-0.62,0.03-1.07,0.04-1.36,0.04c-0.18,0-0.41-0.01-0.69-0.04
	c-0.28-0.03-0.46-0.04-0.56-0.04c-0.24,0-0.41,0.04-0.51,0.13c-0.1,0.08-0.15,0.23-0.15,0.44c0,0.24,0.19,0.39,0.57,0.45
	c0.26,0.05,0.45,0.09,0.59,0.14c0.35,0.05,0.6,0.2,0.75,0.48c0.15,0.27,0.23,0.72,0.23,1.34v11.41c0,1.9-0.34,3.29-1.03,4.17
	c-0.69,0.89-1.77,1.33-3.24,1.33c-1.23,0-2.11-0.37-2.65-1.11c-0.54-0.74-0.81-1.97-0.81-3.69v-14.11c0-0.33-0.09-0.58-0.26-0.74
	c-0.17-0.16-0.46-0.24-0.85-0.24c-0.45,0-0.91,0.01-1.37,0.04c-0.46,0.03-0.7,0.04-0.71,0.04c-0.2,0-0.46-0.01-0.79-0.04
	c-0.33-0.03-0.57-0.04-0.7-0.04c-0.71,0-1.16,0.04-1.36,0.11c-0.2,0.08-0.29,0.23-0.29,0.45c0,0.32,0.28,0.48,0.84,0.5
	c0.35,0.02,0.59,0.05,0.72,0.09c0.35,0.18,0.58,0.42,0.7,0.7c0.12,0.29,0.18,0.92,0.18,1.91V165
	C426.06,167.68,426.51,169.6,427.39,170.78z M448.87,170.83c0.53,1.07,1.44,1.6,2.75,1.6c0.97,0,1.91-0.51,2.82-1.54
	c0.91-1.03,1.36-2.01,1.36-2.93c0-0.09-0.04-0.17-0.12-0.23c-0.08-0.06-0.18-0.09-0.29-0.09c-0.14,0-0.44,0.33-0.91,1
	c-0.47,0.66-0.95,1-1.43,1c-0.49,0-0.82-0.25-0.99-0.75c-0.17-0.5-0.26-1.84-0.26-4.03v-12.3h2.79c0.33,0,0.55-0.06,0.65-0.18
	c0.1-0.12,0.15-0.36,0.15-0.71c0-0.35-0.05-0.59-0.15-0.71c-0.1-0.12-0.37-0.18-0.83-0.18h-2.61v-5.01v-0.27
	c0-0.24-0.03-0.4-0.09-0.48c-0.06-0.08-0.19-0.12-0.39-0.14c-0.18,0-0.5,0.45-0.95,1.35c-0.45,0.9-0.94,1.72-1.45,2.46
	c-0.5,0.73-1.13,1.42-1.88,2.08c-0.76,0.66-1.13,1.08-1.13,1.26c0,0.23,0.08,0.38,0.23,0.45c0.15,0.08,0.49,0.11,1.02,0.11h0.93
	v12.3C448.08,167.79,448.34,169.77,448.87,170.83z M470.9,160.03c0.86,0,1.38-0.09,1.57-0.26c0.19-0.17,0.28-0.69,0.28-1.56
	c0-2.49-0.59-4.44-1.76-5.87c-1.17-1.42-2.78-2.14-4.8-2.14c-2.54,0-4.63,1.09-6.25,3.26c-1.63,2.17-2.44,4.99-2.44,8.46
	c0,3.09,0.79,5.65,2.37,7.69c1.58,2.04,3.55,3.06,5.91,3.06c1.85,0,3.49-0.59,4.94-1.78c1.44-1.19,2.17-2.41,2.17-3.66
	c0-0.2-0.04-0.34-0.11-0.44c-0.08-0.1-0.19-0.15-0.34-0.15c-0.27,0-0.53,0.26-0.77,0.79c-0.24,0.53-0.47,0.91-0.68,1.15
	c-0.51,0.57-1.09,1.01-1.72,1.3c-0.63,0.29-1.31,0.44-2.06,0.44c-1.68,0-3.02-0.79-4.02-2.37c-1-1.58-1.5-3.72-1.5-6.41
	c0-0.65,0.08-1.07,0.25-1.25c0.17-0.18,0.59-0.27,1.27-0.27h5.86H470.9z M468.38,152.5c0.53,0.89,0.8,2.06,0.8,3.52
	c0,1.23-0.32,2.03-0.97,2.41c-0.64,0.38-2.13,0.57-4.47,0.57c-0.74,0-1.25-0.08-1.51-0.25c-0.27-0.17-0.4-0.46-0.4-0.87
	c0-0.61,0.14-1.36,0.42-2.25s0.65-1.71,1.1-2.46c0.42-0.68,0.87-1.19,1.35-1.51c0.48-0.33,1-0.49,1.58-0.49
	C467.15,151.17,467.85,151.62,468.38,152.5z"/>
</svg>
