<?xml version="1.0" encoding="UTF-8" standalone="no"?>
<!-- Created with Inkscape (http://www.inkscape.org/) -->

<svg
   xmlns:dc="http://purl.org/dc/elements/1.1/"
   xmlns:cc="http://creativecommons.org/ns#"
   xmlns:rdf="http://www.w3.org/1999/02/22-rdf-syntax-ns#"
   xmlns:svg="http://www.w3.org/2000/svg"
   xmlns="http://www.w3.org/2000/svg"
   xmlns:sodipodi="http://sodipodi.sourceforge.net/DTD/sodipodi-0.dtd"
   xmlns:inkscape="http://www.inkscape.org/namespaces/inkscape"
   width="723.20135"
   height="277.13733"
   id="svg3513"
   version="1.1"
   inkscape:version="0.48.5 r10040"
   sodipodi:docname="drawing.svg">
  <defs
     id="defs3515">
    <clipPath
       clipPathUnits="userSpaceOnUse"
       id="clipPath3071">
      <path
         inkscape:connector-curvature="0"
         d="m 458.34,540.216 135.133,0 0,51.784 -135.133,0 0,-51.784 z"
         id="path3073" />
    </clipPath>
  </defs>
  <sodipodi:namedview
     id="base"
     pagecolor="#ffffff"
     bordercolor="#666666"
     borderopacity="1.0"
     inkscape:pageopacity="0.0"
     inkscape:pageshadow="2"
     inkscape:zoom="0.35"
     inkscape:cx="943.61057"
     inkscape:cy="126.65068"
     inkscape:document-units="px"
     inkscape:current-layer="layer1"
     showgrid="false"
     inkscape:window-width="1366"
     inkscape:window-height="705"
     inkscape:window-x="-8"
     inkscape:window-y="197"
     inkscape:window-maximized="1"
     fit-margin-left="0"
     fit-margin-right="0"
     fit-margin-top="0"
     fit-margin-bottom="0" />
  <metadata
     id="metadata3518">
    <rdf:RDF>
      <cc:Work
         rdf:about="">
        <dc:format>image/svg+xml</dc:format>
        <dc:type
           rdf:resource="http://purl.org/dc/dcmitype/StillImage" />
        <dc:title></dc:title>
      </cc:Work>
    </rdf:RDF>
  </metadata>
  <g
     inkscape:label="Layer 1"
     inkscape:groupmode="layer"
     id="layer1"
     transform="translate(-9.827905,-381.87557)">
    <g
       transform="matrix(5.3517943,0,0,-5.3517943,-2443.1151,3550.1378)"
       clip-path="url(#clipPath3071)"
       id="g3069">
      <g
         transform="translate(515.5468,570.4913)"
         id="g3075">
        <path
           inkscape:connector-curvature="0"
           id="path3077"
           style="fill:#00bfdf;fill-opacity:1;fill-rule:nonzero;stroke:none"
           d="m 0,0 c -4.353,0 -7.894,3.494 -7.894,7.788 0,4.294 3.541,7.788 7.894,7.788 4.353,0 7.894,-3.494 7.894,-7.788 C 7.894,3.494 4.353,0 0,0 M 7.894,19.076 C 5.65,20.608 2.93,21.509 0,21.509 c -6.444,0 -11.876,-4.347 -13.448,-10.223 0,0 -0.46,-1.604 -0.46,-3.614 0,-2.011 0.46,-3.382 0.46,-3.382 1.572,-5.876 7.004,-10.223 13.448,-10.223 2.93,0 5.65,0.901 7.894,2.433 l 0,-1.707 6.014,0 0,25.907 -6.014,0 0,-1.624 z" />
      </g>
      <g
         transform="translate(549.4979,585.2742)"
         id="g3079">
        <path
           inkscape:connector-curvature="0"
           id="path3081"
           style="fill:#00bfdf;fill-opacity:1;fill-rule:nonzero;stroke:none"
           d="m 0,0 c 0,-6.784 -4.865,-12.468 -11.334,-13.835 l 0,19.752 -6.014,0 0,-25.997 3.007,0 c 8.793,0 16.047,5.269 19.14,13.249 0.956,2.464 1.032,4.176 1.15,5.3 0.047,0.452 0.065,1.015 0.065,1.531 l 0,5.917 L 0,5.917 0,0 z" />
      </g>
      <g
         transform="translate(570.9512,586.0671)"
         id="g3083">
        <path
           inkscape:connector-curvature="0"
           id="path3085"
           style="fill:#00bfdf;fill-opacity:1;fill-rule:nonzero;stroke:none"
           d="m 0,0 c 3.033,0 5.67,-1.697 6.992,-4.179 l -13.984,0 C -5.671,-1.697 -3.033,0 0,0 m 3.481,-10.111 10.223,0 c 0.132,0.755 0.204,1.531 0.204,2.323 0,7.566 -6.239,13.721 -13.908,13.721 -3.966,0 -7.402,-1.571 -9.876,-4.012 -2.791,-2.753 -4.032,-6.293 -4.032,-9.709 0,-7.565 6.239,-13.72 13.908,-13.72 5.331,0 10.041,3.057 12.302,7.329 0.306,0.58 0.488,1.022 0.628,1.339 l -6.933,0 C 4.548,-14.512 2.399,-15.576 0,-15.576 c -3.533,0 -6.531,2.302 -7.536,5.465 l 11.017,0 z" />
      </g>
      <g
         transform="translate(493.0823,576.2469)"
         id="g3087">
        <path
           inkscape:connector-curvature="0"
           id="path3089"
           style="fill:#00bfdf;fill-opacity:1;fill-rule:nonzero;stroke:none"
           d="m 0,0 c 0,-2.957 -2.459,-5.364 -5.48,-5.364 -2.81,0 -5.129,2.08 -5.442,4.749 0.01,0.204 0.031,0.407 0.031,0.615 l 0,14.945 -0.07,0 -6.375,0 -0.07,0 0,-14.945 c 0,-0.208 0.021,-0.411 0.031,-0.615 -0.313,-2.669 -2.633,-4.749 -5.441,-4.749 -3.022,0 -5.481,2.407 -5.481,5.364 l 0,14.945 -6.445,0 0,-14.945 c 0,-6.512 5.35,-11.809 11.926,-11.809 3.415,0 6.491,1.437 8.667,3.723 2.177,-2.286 5.253,-3.723 8.669,-3.723 6.576,0 11.925,5.297 11.925,11.809 l 0,14.945 L 0,14.945 0,0 z" />
      </g>
      <path
         inkscape:connector-curvature="0"
         id="path3091"
         style="fill:#FFFFFF;fill-opacity:1;fill-rule:nonzero;stroke:none"
         d="m 459.643,543.238 -0.537,0 0,7.471 0.537,0 0,-7.471 z m 0,8.732 -0.537,0 0,1.335 0.537,0 0,-1.335 z" />
      <g
         transform="translate(468.1589,543.2375)"
         id="g3093">
        <path
           inkscape:connector-curvature="0"
           id="path3095"
           style="fill:#FFFFFF;fill-opacity:1;fill-rule:nonzero;stroke:none"
           d="m 0,0 -0.537,0 0,4.511 c 0,1.64 -0.884,2.626 -2.524,2.626 -1.508,0 -2.683,-1.117 -2.683,-2.626 l 0,-4.511 -0.537,0 0,7.471 0.537,0 0,-1.262 c 0.536,0.884 1.508,1.45 2.698,1.45 C -1.132,7.659 0,6.455 0,4.511 L 0,0 z" />
      </g>
      <g
         transform="translate(470.9024,545.8198)"
         id="g3097">
        <path
           inkscape:connector-curvature="0"
           id="path3099"
           style="fill:#FFFFFF;fill-opacity:1;fill-rule:nonzero;stroke:none"
           d="m 0,0 c 0,-1.277 0.595,-2.147 2.016,-2.089 l 0,-0.493 C 0.406,-2.728 -0.537,-1.669 -0.537,0 l 0,4.352 -1.015,0 0,0.536 1.015,0 0,1.596 0.537,0 0,-1.596 2.016,0 0,-0.536 L 0,4.352 0,0 z" />
      </g>
      <g
         transform="translate(480.3899,547.5167)"
         id="g3101">
        <path
           inkscape:connector-curvature="0"
           id="path3103"
           style="fill:#FFFFFF;fill-opacity:1;fill-rule:nonzero;stroke:none"
           d="M 0,0 C -0.261,1.61 -1.581,2.829 -3.148,2.829 -4.729,2.829 -6.035,1.61 -6.281,0 L 0,0 z m -6.339,-0.537 c 0.015,-1.943 1.465,-3.379 3.278,-3.379 1.755,0 2.554,0.971 2.916,1.958 l 0.566,0 c -0.522,-1.61 -1.727,-2.495 -3.482,-2.495 -2.132,0 -3.815,1.712 -3.815,3.887 0,2.176 1.668,3.946 3.728,3.946 2.234,0 3.757,-2.031 3.729,-3.917 l -6.92,0 z" />
      </g>
      <g
         transform="translate(486.0636,550.3744)"
         id="g3105">
        <path
           inkscape:connector-curvature="0"
           id="path3107"
           style="fill:#FFFFFF;fill-opacity:1;fill-rule:nonzero;stroke:none"
           d="m 0,0 c -0.987,0.087 -1.741,-0.189 -2.205,-0.638 -0.536,-0.479 -0.827,-1.204 -0.827,-1.987 l 0,-4.512 -0.551,0 0,7.471 0.551,0 0,-1.247 c 0.131,0.246 0.291,0.478 0.493,0.666 0.653,0.581 1.524,0.856 2.539,0.74 L 0,0 z" />
      </g>
      <g
         transform="translate(493.5932,543.2375)"
         id="g3109">
        <path
           inkscape:connector-curvature="0"
           id="path3111"
           style="fill:#FFFFFF;fill-opacity:1;fill-rule:nonzero;stroke:none"
           d="m 0,0 -0.537,0 0,4.511 c 0,1.64 -0.885,2.626 -2.524,2.626 -1.508,0 -2.683,-1.117 -2.683,-2.626 l 0,-4.511 -0.537,0 0,7.471 0.537,0 0,-1.262 c 0.536,0.884 1.508,1.45 2.698,1.45 C -1.132,7.659 0,6.455 0,4.511 L 0,0 z" />
      </g>
      <g
         transform="translate(501.9217,547.5167)"
         id="g3113">
        <path
           inkscape:connector-curvature="0"
           id="path3115"
           style="fill:#FFFFFF;fill-opacity:1;fill-rule:nonzero;stroke:none"
           d="M 0,0 C -0.261,1.61 -1.581,2.829 -3.148,2.829 -4.729,2.829 -6.035,1.61 -6.281,0 L 0,0 z m -6.339,-0.537 c 0.015,-1.943 1.465,-3.379 3.278,-3.379 1.755,0 2.554,0.971 2.916,1.958 l 0.566,0 c -0.522,-1.61 -1.727,-2.495 -3.482,-2.495 -2.132,0 -3.815,1.712 -3.815,3.887 0,2.176 1.668,3.946 3.728,3.946 2.234,0 3.757,-2.031 3.729,-3.917 l -6.92,0 z" />
      </g>
      <g
         transform="translate(504.6507,545.8198)"
         id="g3117">
        <path
           inkscape:connector-curvature="0"
           id="path3119"
           style="fill:#FFFFFF;fill-opacity:1;fill-rule:nonzero;stroke:none"
           d="m 0,0 c 0,-1.277 0.595,-2.147 2.016,-2.089 l 0,-0.493 C 0.406,-2.728 -0.537,-1.669 -0.537,0 l 0,4.352 -1.015,0 0,0.536 1.015,0 0,1.596 0.537,0 0,-1.596 2.016,0 0,-0.536 L 0,4.352 0,0 z" />
      </g>
      <path
         inkscape:connector-curvature="0"
         id="path3121"
         style="fill:#FFFFFF;fill-opacity:1;fill-rule:nonzero;stroke:none"
         d="m 513.153,543.245 -0.537,0 0,10.793 0.537,0 0,-10.793 z" />
      <g
         transform="translate(520.4221,545.8198)"
         id="g3123">
        <path
           inkscape:connector-curvature="0"
           id="path3125"
           style="fill:#FFFFFF;fill-opacity:1;fill-rule:nonzero;stroke:none"
           d="m 0,0 c 0,-1.277 0.595,-2.147 2.016,-2.089 l 0,-0.493 C 0.406,-2.728 -0.537,-1.669 -0.537,0 l 0,4.352 -1.015,0 0,0.536 1.015,0 0,1.596 0.537,0 0,-1.596 2.016,0 0,-0.536 L 0,4.352 0,0 z" />
      </g>
      <g
         transform="translate(526.6747,543.2375)"
         id="g3127">
        <path
           inkscape:connector-curvature="0"
           id="path3129"
           style="fill:#FFFFFF;fill-opacity:1;fill-rule:nonzero;stroke:none"
           d="m 0,0 -0.581,0 -2.872,7.471 0.581,0 2.582,-6.731 2.582,6.731 0.58,0 L 0,0 z" />
      </g>
      <path
         inkscape:connector-curvature="0"
         id="path3131"
         style="fill:#FFFFFF;fill-opacity:1;fill-rule:nonzero;stroke:none"
         d="m 535.787,543.245 -0.537,0 0,10.793 0.537,0 0,-10.793 z" />
      <g
         transform="translate(546.0735,550.3455)"
         id="g3133">
        <path
           inkscape:connector-curvature="0"
           id="path3135"
           style="fill:#FFFFFF;fill-opacity:1;fill-rule:nonzero;stroke:none"
           d="m 0,0 c -1.755,0 -3.191,-1.523 -3.191,-3.395 0,-1.841 1.436,-3.35 3.191,-3.35 1.77,0 3.191,1.509 3.191,3.35 C 3.191,-1.523 1.77,0 0,0 m 0,-7.282 c -1.378,0 -2.567,0.798 -3.191,1.973 l 0,-5.121 -0.537,0 0,10.792 0.537,0 0,-1.813 c 0.624,1.19 1.813,2.002 3.191,2.002 2.06,0 3.742,-1.77 3.742,-3.946 C 3.742,-5.542 2.06,-7.282 0,-7.282" />
      </g>
      <g
         transform="translate(557.6077,543.2375)"
         id="g3137">
        <path
           inkscape:connector-curvature="0"
           id="path3139"
           style="fill:#FFFFFF;fill-opacity:1;fill-rule:nonzero;stroke:none"
           d="m 0,0 -0.537,0 0,4.511 c 0,1.64 -0.885,2.626 -2.524,2.626 -1.508,0 -2.683,-1.117 -2.683,-2.626 l 0,-4.511 -0.537,0 0,10.793 0.537,0 0,-4.584 c 0.536,0.884 1.508,1.45 2.698,1.45 C -1.132,7.659 0,6.455 0,4.511 L 0,0 z" />
      </g>
      <g
         transform="translate(565.9797,546.951)"
         id="g3141">
        <path
           inkscape:connector-curvature="0"
           id="path3143"
           style="fill:#FFFFFF;fill-opacity:1;fill-rule:nonzero;stroke:none"
           d="m 0,0 c 0,1.901 -1.422,3.438 -3.191,3.438 -1.756,0 -3.192,-1.537 -3.192,-3.438 0,-1.857 1.436,-3.38 3.192,-3.38 C -1.422,-3.38 0,-1.857 0,0 m 0.551,0 c 0,-2.147 -1.683,-3.888 -3.742,-3.888 -2.046,0 -3.728,1.741 -3.728,3.888 0,2.176 1.682,3.945 3.728,3.945 2.059,0 3.742,-1.769 3.742,-3.945" />
      </g>
      <g
         transform="translate(574.3224,543.2375)"
         id="g3145">
        <path
           inkscape:connector-curvature="0"
           id="path3147"
           style="fill:#FFFFFF;fill-opacity:1;fill-rule:nonzero;stroke:none"
           d="m 0,0 -0.537,0 0,4.511 c 0,1.64 -0.885,2.626 -2.524,2.626 -1.508,0 -2.683,-1.117 -2.683,-2.626 l 0,-4.511 -0.537,0 0,7.471 0.537,0 0,-1.262 c 0.536,0.884 1.508,1.45 2.698,1.45 C -1.132,7.659 0,6.455 0,4.511 L 0,0 z" />
      </g>
      <g
         transform="translate(582.6509,547.5167)"
         id="g3149">
        <path
           inkscape:connector-curvature="0"
           id="path3151"
           style="fill:#FFFFFF;fill-opacity:1;fill-rule:nonzero;stroke:none"
           d="M 0,0 C -0.261,1.61 -1.581,2.829 -3.148,2.829 -4.729,2.829 -6.035,1.61 -6.281,0 L 0,0 z m -6.339,-0.537 c 0.015,-1.943 1.465,-3.379 3.278,-3.379 1.755,0 2.554,0.971 2.916,1.958 l 0.566,0 c -0.522,-1.61 -1.727,-2.495 -3.482,-2.495 -2.132,0 -3.815,1.712 -3.815,3.887 0,2.176 1.668,3.946 3.728,3.946 2.234,0 3.757,-2.031 3.729,-3.917 l -6.92,0 z" />
      </g>
      <g
         transform="translate(591.2348,568.0904)"
         id="g3153">
        <path
           inkscape:connector-curvature="0"
           id="path3155"
           style="fill:#FFFFFF;fill-opacity:1;fill-rule:nonzero;stroke:none"
           d="m 0,0 -1.013,0 0,-1.148 1.027,0 c 0.305,0 0.61,0.177 0.61,0.574 C 0.624,-0.071 0.234,0 0,0 m 0.871,-2.586 -0.304,0 -0.652,1.183 -0.928,0 0,-1.183 -0.262,0 0,2.841 1.275,0 c 0.552,0 0.885,-0.312 0.885,-0.829 0,-0.432 -0.275,-0.744 -0.694,-0.815 l 0.68,-1.197 z m -1.197,3.741 c -1.268,0 -2.295,-1.035 -2.295,-2.317 0,-1.275 1.027,-2.309 2.295,-2.309 1.269,0 2.303,1.034 2.303,2.309 0,1.282 -1.034,2.317 -2.303,2.317 m 0,-4.881 c -1.41,0 -2.557,1.154 -2.557,2.564 0,1.417 1.147,2.564 2.557,2.564 1.41,0 2.564,-1.147 2.564,-2.564 0,-1.41 -1.154,-2.564 -2.564,-2.564" />
      </g>
    </g>
  </g>
</svg>
